<?xml version="1.0" encoding="UTF-8" standalone="no"?>
<!DOCTYPE svg PUBLIC "-//W3C//DTD SVG 1.1//EN"
 "http://www.w3.org/Graphics/SVG/1.1/DTD/svg11.dtd">
<!-- Generated by graphviz version 2.47.0 (20210316.0004)
 -->
<!-- Title: dependencies Pages: 1 -->
<svg width="573pt" height="284pt"
 viewBox="0.00 0.00 573.00 284.00" xmlns="http://www.w3.org/2000/svg" xmlns:xlink="http://www.w3.org/1999/xlink">
<g id="graph0" class="graph" transform="scale(1 1) rotate(0) translate(4 280)">
<title>dependencies</title>
<polygon fill="white" stroke="transparent" points="-4,4 -4,-280 569,-280 569,4 -4,4"/>
<text text-anchor="start" x="261.51" y="-42.4" font-family="Times-12" font-weight="bold" font-size="14.00">Legend</text>
<polygon fill="#ffffb3" stroke="transparent" points="48.5,-10 48.5,-30 68.5,-30 68.5,-10 48.5,-10"/>
<text text-anchor="start" x="72.13" y="-15.4" font-family="Times-12" font-size="14.00"> &#160;Declarations</text>
<polygon fill="#8dd3c7" stroke="transparent" points="161.5,-10 161.5,-30 181.5,-30 181.5,-10 161.5,-10"/>
<text text-anchor="start" x="185.23" y="-15.4" font-family="Times-12" font-size="14.00"> &#160;Module</text>
<polygon fill="#80b1d3" stroke="transparent" points="247.5,-10 247.5,-30 267.5,-30 267.5,-10 247.5,-10"/>
<text text-anchor="start" x="271.28" y="-15.4" font-family="Times-12" font-size="14.00"> &#160;Bootstrap</text>
<polygon fill="#fdb462" stroke="transparent" points="344.5,-10 344.5,-30 364.5,-30 364.5,-10 344.5,-10"/>
<text text-anchor="start" x="368.17" y="-15.4" font-family="Times-12" font-size="14.00"> &#160;Providers</text>
<polygon fill="#fb8072" stroke="transparent" points="440.5,-10 440.5,-30 460.5,-30 460.5,-10 440.5,-10"/>
<text text-anchor="start" x="464.23" y="-15.4" font-family="Times-12" font-size="14.00"> &#160;Exports</text>
<g id="clust1" class="cluster">
<title>cluster_AppModule</title>
<polygon fill="none" stroke="black" stroke-dasharray="1,5" points="8,-70 8,-268 557,-268 557,-70 8,-70"/>
</g>
<g id="clust5" class="cluster">
<title>cluster_AppModule_imports</title>
<polygon fill="none" stroke="black" points="269,-78 269,-130 549,-130 549,-78 269,-78"/>
</g>
<g id="clust7" class="cluster">
<title>cluster_AppModule_bootstrap</title>
<polygon fill="none" stroke="black" points="206,-208 206,-260 330,-260 330,-208 206,-208"/>
</g>
<g id="clust2" class="cluster">
<title>cluster_AppModule_declarations</title>
<polygon fill="none" stroke="black" points="16,-78 16,-130 261,-130 261,-78 16,-78"/>
</g>
<!-- AppComponent -->
<g id="node1" class="node">
<title>AppComponent</title>
<polygon fill="#ffffb3" stroke="black" points="252.94,-122 147.06,-122 147.06,-86 252.94,-86 252.94,-122"/>
<text text-anchor="middle" x="200" y="-99.8" font-family="Times,serif" font-size="14.00">AppComponent</text>
</g>
<!-- AppModule -->
<g id="node3" class="node">
<title>AppModule</title>
<polygon fill="#8dd3c7" stroke="black" points="309.66,-187 306.66,-191 285.66,-191 282.66,-187 226.34,-187 226.34,-151 309.66,-151 309.66,-187"/>
<text text-anchor="middle" x="268" y="-164.8" font-family="Times,serif" font-size="14.00">AppModule</text>
</g>
<!-- AppComponent&#45;&gt;AppModule -->
<g id="edge1" class="edge">
<title>AppComponent&#45;&gt;AppModule</title>
<path fill="none" stroke="black" d="M239.45,-122.11C239.45,-122.11 239.45,-140.99 239.45,-140.99"/>
<polygon fill="black" stroke="black" points="235.95,-140.99 239.45,-150.99 242.95,-140.99 235.95,-140.99"/>
</g>
<!-- TestComponent -->
<g id="node2" class="node">
<title>TestComponent</title>
<polygon fill="#ffffb3" stroke="black" points="129.94,-122 24.06,-122 24.06,-86 129.94,-86 129.94,-122"/>
<text text-anchor="middle" x="77" y="-99.8" font-family="Times,serif" font-size="14.00">TestComponent</text>
</g>
<!-- TestComponent&#45;&gt;AppModule -->
<g id="edge2" class="edge">
<title>TestComponent&#45;&gt;AppModule</title>
<path fill="none" stroke="black" d="M77,-122.11C77,-141.34 77,-169 77,-169 77,-169 216.08,-169 216.08,-169"/>
<polygon fill="black" stroke="black" points="216.08,-172.5 226.08,-169 216.08,-165.5 216.08,-172.5"/>
</g>
<!-- AppComponent  -->
<g id="node6" class="node">
<title>AppComponent </title>
<polygon fill="#80b1d3" stroke="black" points="322.44,-252 213.56,-252 213.56,-216 322.44,-216 322.44,-252"/>
<text text-anchor="middle" x="268" y="-229.8" font-family="Times,serif" font-size="14.00">AppComponent </text>
</g>
<!-- AppModule&#45;&gt;AppComponent  -->
<g id="edge5" class="edge">
<title>AppModule&#45;&gt;AppComponent </title>
<path fill="none" stroke="black" stroke-dasharray="1,5" d="M268,-187.11C268,-187.11 268,-205.99 268,-205.99"/>
<polygon fill="black" stroke="black" points="264.5,-205.99 268,-215.99 271.5,-205.99 264.5,-205.99"/>
</g>
<!-- AppRoutingModule -->
<g id="node4" class="node">
<title>AppRoutingModule</title>
<polygon fill="#8dd3c7" stroke="black" points="541.27,-122 538.27,-126 517.27,-126 514.27,-122 412.73,-122 412.73,-86 541.27,-86 541.27,-122"/>
<text text-anchor="middle" x="477" y="-99.8" font-family="Times,serif" font-size="14.00">AppRoutingModule</text>
</g>
<!-- AppRoutingModule&#45;&gt;AppModule -->
<g id="edge3" class="edge">
<title>AppRoutingModule&#45;&gt;AppModule</title>
<path fill="none" stroke="black" d="M477,-122.11C477,-141.34 477,-169 477,-169 477,-169 319.79,-169 319.79,-169"/>
<polygon fill="black" stroke="black" points="319.79,-165.5 309.79,-169 319.79,-172.5 319.79,-165.5"/>
</g>
<!-- FooterComponent -->
<g id="node5" class="node">
<title>FooterComponent</title>
<polygon fill="#8dd3c7" stroke="black" points="394.88,-122 391.88,-126 370.88,-126 367.88,-122 277.12,-122 277.12,-86 394.88,-86 394.88,-122"/>
<text text-anchor="middle" x="336" y="-99.8" font-family="Times,serif" font-size="14.00">FooterComponent</text>
</g>
<!-- FooterComponent&#45;&gt;AppModule -->
<g id="edge4" class="edge">
<title>FooterComponent&#45;&gt;AppModule</title>
<path fill="none" stroke="black" d="M293.44,-122.11C293.44,-122.11 293.44,-140.99 293.44,-140.99"/>
<polygon fill="black" stroke="black" points="289.94,-140.99 293.44,-150.99 296.94,-140.99 289.94,-140.99"/>
</g>
</g>
</svg>
